<svg viewBox="0 0 560 330" width="560" height="330" xmlns="http://www.w3.org/2000/svg" style="width:100%;max-width:560px;display:block;margin-top:.5rem">
<line x1="60" y1="22" x2="60" y2="250" stroke="#bbb"/>
<line x1="60" y1="250" x2="542" y2="250" stroke="#bbb"/>
<line x1="72" y1="250" x2="72" y2="254" stroke="#bbb"/><text x="72" y="265" text-anchor="middle" font-size="10" fill="#999">-40</text> <line x1="193" y1="250" x2="193" y2="254" stroke="#bbb"/><text x="193" y="265" text-anchor="middle" font-size="10" fill="#999">-20</text> <line x1="313" y1="250" x2="313" y2="254" stroke="#bbb"/><text x="313" y="265" text-anchor="middle" font-size="10" fill="#999">0</text> <line x1="434" y1="250" x2="434" y2="254" stroke="#bbb"/><text x="434" y="265" text-anchor="middle" font-size="10" fill="#999">20</text> <line x1="554" y1="250" x2="554" y2="254" stroke="#bbb"/><text x="554" y="265" text-anchor="middle" font-size="10" fill="#999">40</text> <line x1="56" y1="219" x2="60" y2="219" stroke="#bbb"/><text x="53" y="223" text-anchor="end" font-size="10" fill="#999">-20</text> <line x1="56" y1="132" x2="60" y2="132" stroke="#bbb"/><text x="53" y="135" text-anchor="end" font-size="10" fill="#999">0</text> <line x1="56" y1="44" x2="60" y2="44" stroke="#bbb"/><text x="53" y="47" text-anchor="end" font-size="10" fill="#999">20</text>
<circle cx="396.1" cy="209.0" r="3.2" fill="rgba(205,70,70,.45)"/> <circle cx="429.2" cy="128.3" r="3.2" fill="rgba(205,70,70,.45)"/> <circle cx="400.7" cy="164.7" r="3.2" fill="rgba(205,70,70,.45)"/> <circle cx="419.3" cy="182.9" r="3.2" fill="rgba(205,70,70,.45)"/> <circle cx="509.0" cy="106.1" r="3.2" fill="rgba(205,70,70,.45)"/> <circle cx="375.9" cy="136.0" r="3.2" fill="rgba(205,70,70,.45)"/> <circle cx="421.7" cy="100.7" r="3.2" fill="rgba(205,70,70,.45)"/> <circle cx="401.5" cy="208.0" r="3.2" fill="rgba(205,70,70,.45)"/> <circle cx="484.1" cy="200.0" r="3.2" fill="rgba(205,70,70,.45)"/> <circle cx="509.8" cy="144.8" r="3.2" fill="rgba(205,70,70,.45)"/> <circle cx="332.6" cy="72.9" r="3.2" fill="rgba(205,70,70,.45)"/> <circle cx="377.5" cy="163.4" r="3.2" fill="rgba(205,70,70,.45)"/> <circle cx="504.4" cy="165.2" r="3.2" fill="rgba(205,70,70,.45)"/> <circle cx="421.0" cy="149.7" r="3.2" fill="rgba(205,70,70,.45)"/> <circle cx="433.8" cy="201.9" r="3.2" fill="rgba(205,70,70,.45)"/> <circle cx="435.2" cy="117.3" r="3.2" fill="rgba(205,70,70,.45)"/> <circle cx="388.1" cy="182.2" r="3.2" fill="rgba(205,70,70,.45)"/> <circle cx="374.3" cy="156.2" r="3.2" fill="rgba(205,70,70,.45)"/> <circle cx="453.1" cy="136.2" r="3.2" fill="rgba(205,70,70,.45)"/> <circle cx="437.4" cy="194.3" r="3.2" fill="rgba(205,70,70,.45)"/> <circle cx="472.6" cy="76.4" r="3.2" fill="rgba(205,70,70,.45)"/> <circle cx="426.7" cy="68.8" r="3.2" fill="rgba(205,70,70,.45)"/> <circle cx="379.0" cy="249.0" r="3.2" fill="rgba(205,70,70,.45)"/> <circle cx="479.0" cy="81.5" r="3.2" fill="rgba(205,70,70,.45)"/> <circle cx="459.1" cy="112.3" r="3.2" fill="rgba(205,70,70,.45)"/> <circle cx="444.7" cy="120.9" r="3.2" fill="rgba(205,70,70,.45)"/> <circle cx="449.6" cy="98.5" r="3.2" fill="rgba(205,70,70,.45)"/> <circle cx="369.3" cy="138.5" r="3.2" fill="rgba(205,70,70,.45)"/> <circle cx="379.2" cy="137.7" r="3.2" fill="rgba(205,70,70,.45)"/> <circle cx="363.0" cy="90.8" r="3.2" fill="rgba(205,70,70,.45)"/> <circle cx="472.2" cy="154.6" r="3.2" fill="rgba(205,70,70,.45)"/> <circle cx="434.3" cy="94.5" r="3.2" fill="rgba(205,70,70,.45)"/> <circle cx="411.8" cy="91.8" r="3.2" fill="rgba(205,70,70,.45)"/> <circle cx="490.7" cy="222.5" r="3.2" fill="rgba(205,70,70,.45)"/> <circle cx="380.9" cy="152.4" r="3.2" fill="rgba(205,70,70,.45)"/> <circle cx="521.4" cy="103.6" r="3.2" fill="rgba(205,70,70,.45)"/> <circle cx="434.7" cy="178.7" r="3.2" fill="rgba(205,70,70,.45)"/> <circle cx="429.7" cy="78.2" r="3.2" fill="rgba(205,70,70,.45)"/> <circle cx="382.8" cy="116.3" r="3.2" fill="rgba(205,70,70,.45)"/> <circle cx="464.8" cy="147.4" r="3.2" fill="rgba(205,70,70,.45)"/> <circle cx="484.6" cy="98.9" r="3.2" fill="rgba(205,70,70,.45)"/> <circle cx="437.6" cy="147.6" r="3.2" fill="rgba(205,70,70,.45)"/> <circle cx="335.9" cy="139.8" r="3.2" fill="rgba(205,70,70,.45)"/> <circle cx="344.9" cy="126.1" r="3.2" fill="rgba(205,70,70,.45)"/> <circle cx="279.6" cy="92.6" r="3.2" fill="rgba(205,70,70,.45)"/> <circle cx="344.9" cy="163.5" r="3.2" fill="rgba(205,70,70,.45)"/> <circle cx="509.3" cy="149.2" r="3.2" fill="rgba(205,70,70,.45)"/> <circle cx="477.6" cy="119.7" r="3.2" fill="rgba(205,70,70,.45)"/> <circle cx="379.8" cy="38.3" r="3.2" fill="rgba(205,70,70,.45)"/> <circle cx="456.0" cy="134.2" r="3.2" fill="rgba(205,70,70,.45)"/> <circle cx="425.0" cy="74.5" r="3.2" fill="rgba(205,70,70,.45)"/> <circle cx="337.5" cy="124.5" r="3.2" fill="rgba(205,70,70,.45)"/> <circle cx="352.4" cy="165.4" r="3.2" fill="rgba(205,70,70,.45)"/> <circle cx="468.3" cy="210.9" r="3.2" fill="rgba(205,70,70,.45)"/> <circle cx="306.6" cy="232.9" r="3.2" fill="rgba(205,70,70,.45)"/> <circle cx="519.4" cy="130.6" r="3.2" fill="rgba(205,70,70,.45)"/> <circle cx="416.0" cy="146.7" r="3.2" fill="rgba(205,70,70,.45)"/> <circle cx="486.4" cy="131.8" r="3.2" fill="rgba(205,70,70,.45)"/> <circle cx="398.1" cy="146.8" r="3.2" fill="rgba(205,70,70,.45)"/> <circle cx="388.7" cy="105.0" r="3.2" fill="rgba(205,70,70,.45)"/> <circle cx="388.6" cy="104.4" r="3.2" fill="rgba(205,70,70,.45)"/> <circle cx="370.2" cy="125.4" r="3.2" fill="rgba(205,70,70,.45)"/> <circle cx="407.3" cy="110.8" r="3.2" fill="rgba(205,70,70,.45)"/> <circle cx="533.1" cy="127.2" r="3.2" fill="rgba(205,70,70,.45)"/> <circle cx="381.6" cy="153.2" r="3.2" fill="rgba(205,70,70,.45)"/> <circle cx="539.6" cy="147.8" r="3.2" fill="rgba(205,70,70,.45)"/> <circle cx="404.5" cy="67.6" r="3.2" fill="rgba(205,70,70,.45)"/> <circle cx="445.6" cy="57.5" r="3.2" fill="rgba(205,70,70,.45)"/> <circle cx="382.6" cy="81.7" r="3.2" fill="rgba(205,70,70,.45)"/> <circle cx="409.3" cy="173.4" r="3.2" fill="rgba(205,70,70,.45)"/> <circle cx="483.6" cy="94.7" r="3.2" fill="rgba(205,70,70,.45)"/> <circle cx="314.3" cy="117.4" r="3.2" fill="rgba(205,70,70,.45)"/> <circle cx="412.8" cy="142.8" r="3.2" fill="rgba(205,70,70,.45)"/> <circle cx="470.3" cy="105.3" r="3.2" fill="rgba(205,70,70,.45)"/> <circle cx="513.5" cy="166.0" r="3.2" fill="rgba(205,70,70,.45)"/> <circle cx="425.3" cy="201.1" r="3.2" fill="rgba(205,70,70,.45)"/> <circle cx="382.6" cy="50.6" r="3.2" fill="rgba(205,70,70,.45)"/> <circle cx="362.7" cy="69.1" r="3.2" fill="rgba(205,70,70,.45)"/> <circle cx="451.0" cy="142.9" r="3.2" fill="rgba(205,70,70,.45)"/> <circle cx="426.1" cy="219.0" r="3.2" fill="rgba(205,70,70,.45)"/> <circle cx="306.8" cy="159.5" r="3.2" fill="rgba(205,70,70,.45)"/> <circle cx="444.6" cy="185.3" r="3.2" fill="rgba(205,70,70,.45)"/> <circle cx="445.2" cy="71.5" r="3.2" fill="rgba(205,70,70,.45)"/> <circle cx="467.6" cy="159.8" r="3.2" fill="rgba(205,70,70,.45)"/> <circle cx="390.2" cy="126.6" r="3.2" fill="rgba(205,70,70,.45)"/> <circle cx="421.5" cy="214.1" r="3.2" fill="rgba(205,70,70,.45)"/> <circle cx="384.8" cy="107.4" r="3.2" fill="rgba(205,70,70,.45)"/> <circle cx="388.3" cy="202.6" r="3.2" fill="rgba(205,70,70,.45)"/>
<circle cx="211.0" cy="117.3" r="4.5" fill="rgba(55,112,185,.88)"/> <circle cx="210.1" cy="94.2" r="4.5" fill="rgba(55,112,185,.88)"/> <circle cx="184.1" cy="140.1" r="4.5" fill="rgba(55,112,185,.88)"/> <circle cx="186.7" cy="96.6" r="4.5" fill="rgba(55,112,185,.88)"/> <circle cx="225.3" cy="113.5" r="4.5" fill="rgba(55,112,185,.88)"/> <circle cx="182.4" cy="124.7" r="4.5" fill="rgba(55,112,185,.88)"/> <circle cx="172.9" cy="94.5" r="4.5" fill="rgba(55,112,185,.88)"/> <circle cx="203.0" cy="205.1" r="4.5" fill="rgba(55,112,185,.88)"/> <circle cx="178.8" cy="142.5" r="4.5" fill="rgba(55,112,185,.88)"/> <circle cx="158.2" cy="127.8" r="4.5" fill="rgba(55,112,185,.88)"/> <circle cx="164.4" cy="99.1" r="4.5" fill="rgba(55,112,185,.88)"/> <circle cx="195.1" cy="141.4" r="4.5" fill="rgba(55,112,185,.88)"/> <circle cx="153.2" cy="130.3" r="4.5" fill="rgba(55,112,185,.88)"/> <circle cx="153.6" cy="89.2" r="4.5" fill="rgba(55,112,185,.88)"/> <circle cx="171.6" cy="136.8" r="4.5" fill="rgba(55,112,185,.88)"/> <circle cx="151.0" cy="61.3" r="4.5" fill="rgba(55,112,185,.88)"/> <circle cx="225.0" cy="141.3" r="4.5" fill="rgba(55,112,185,.88)"/> <circle cx="159.8" cy="186.1" r="4.5" fill="rgba(55,112,185,.88)"/> <circle cx="171.0" cy="132.8" r="4.5" fill="rgba(55,112,185,.88)"/> <circle cx="177.5" cy="141.0" r="4.5" fill="rgba(55,112,185,.88)"/> <circle cx="174.6" cy="108.9" r="4.5" fill="rgba(55,112,185,.88)"/> <circle cx="191.7" cy="183.3" r="4.5" fill="rgba(55,112,185,.88)"/> <circle cx="196.2" cy="123.6" r="4.5" fill="rgba(55,112,185,.88)"/> <circle cx="206.0" cy="91.0" r="4.5" fill="rgba(55,112,185,.88)"/> <circle cx="170.4" cy="166.7" r="4.5" fill="rgba(55,112,185,.88)"/> <circle cx="120.7" cy="107.4" r="4.5" fill="rgba(55,112,185,.88)"/> <circle cx="146.6" cy="125.9" r="4.5" fill="rgba(55,112,185,.88)"/> <circle cx="208.9" cy="142.0" r="4.5" fill="rgba(55,112,185,.88)"/> <circle cx="167.3" cy="132.4" r="4.5" fill="rgba(55,112,185,.88)"/> <circle cx="142.4" cy="161.1" r="4.5" fill="rgba(55,112,185,.88)"/> <circle cx="205.0" cy="77.0" r="4.5" fill="rgba(55,112,185,.88)"/> <circle cx="159.7" cy="110.9" r="4.5" fill="rgba(55,112,185,.88)"/> <circle cx="120.3" cy="88.4" r="4.5" fill="rgba(55,112,185,.88)"/> <circle cx="166.9" cy="129.9" r="4.5" fill="rgba(55,112,185,.88)"/>
<circle cx="392" cy="36" r="5" fill="rgba(55,112,185,.88)"/>
<text x="400" y="40" font-size="11" fill="#333" font-family="system-ui,sans-serif">Phage-susceptible strains (n=34)</text>
<circle cx="392" cy="53" r="4" fill="rgba(205,70,70,.7)"/>
<text x="400" y="57" font-size="11" fill="#333" font-family="system-ui,sans-serif">Phage-resistant strains (n=91)</text>
<text x="301" y="314" text-anchor="middle" font-size="12" fill="#555" font-family="system-ui,sans-serif">PC1 (defense-repertoire richness, 41.2% var)</text>
<text x="11" y="136" text-anchor="middle" font-size="12" fill="#555" font-family="system-ui,sans-serif" transform="rotate(-90,11,136)">PC2 (R-M / CBASS / PCD balance, 16.9% var)</text>
</svg>